HIERARCHY
ROOT root
{
	OFFSET 0.000000 0.000000 0.000000
	CHANNELS 6 Xposition Yposition Zposition Zrotation Yrotation Xrotation
	JOINT lhip
	{
		OFFSET 0.058581 -0.082280 -0.017664
		CHANNELS 3 Zrotation Yrotation Xrotation
		JOINT lknee
		{
			OFFSET 0.043451 -0.386469 0.008037
			CHANNELS 3 Zrotation Yrotation Xrotation
			JOINT lankle
			{
				OFFSET -0.014790 -0.426874 -0.037428
				CHANNELS 3 Zrotation Yrotation Xrotation
				JOINT ltoe
				{
					OFFSET 0.041054 -0.060286 0.122042
					CHANNELS 3 Zrotation Yrotation Xrotation
					End Site
					{
						OFFSET 0.000000 0.000000 0.000000
					}
				}
			}
		}
	}
	JOINT rhip
	{
		OFFSET -0.060310 -0.090513 -0.013543
		CHANNELS 3 Zrotation Yrotation Xrotation
		JOINT rknee
		{
			OFFSET -0.043257 -0.383688 -0.004843
			CHANNELS 3 Zrotation Yrotation Xrotation
			JOINT rankle
			{
				OFFSET 0.019056 -0.420046 -0.034562
				CHANNELS 3 Zrotation Yrotation Xrotation
				JOINT rtoe
				{
					OFFSET -0.034840 -0.062106 0.130323
					CHANNELS 3 Zrotation Yrotation Xrotation
					End Site
					{
						OFFSET 0.000000 0.000000 0.000000
					}
				}
			}
		}
	}
	JOINT lowerback
	{
		OFFSET 0.004439 0.124404 -0.038385
		CHANNELS 3 Zrotation Yrotation Xrotation
		JOINT upperback
		{
			OFFSET 0.004488 0.137956 0.026820
			CHANNELS 3 Zrotation Yrotation Xrotation
			JOINT chest
			{
				OFFSET -0.002265 0.056032 0.002855
				CHANNELS 3 Zrotation Yrotation Xrotation
				JOINT lowerneck
				{
					OFFSET -0.013390 0.211636 -0.033468
					CHANNELS 3 Zrotation Yrotation Xrotation
					JOINT upperneck
					{
						OFFSET 0.010113 0.088937 0.050410
						CHANNELS 3 Zrotation Yrotation Xrotation
						End Site
						{
							OFFSET 0.000000 0.000000 0.000000
						}
					}
				}
				JOINT lclavicle
				{
					OFFSET 0.071702 0.114000 -0.018898
					CHANNELS 3 Zrotation Yrotation Xrotation
					JOINT lshoulder
					{
						OFFSET 0.122921 0.045205 -0.019046
						CHANNELS 3 Zrotation Yrotation Xrotation
						JOINT lelbow
						{
							OFFSET 0.255332 -0.015649 -0.022946
							CHANNELS 3 Zrotation Yrotation Xrotation
							JOINT lwrist
							{
								OFFSET 0.265709 0.012698 -0.007375
								CHANNELS 3 Zrotation Yrotation Xrotation
								End Site
								{
									OFFSET 0.000000 0.000000 0.000000
								}
							}
						}
					}
				}
				JOINT rclavicle
				{
					OFFSET -0.082954 0.112472 -0.023707
					CHANNELS 3 Zrotation Yrotation Xrotation
					JOINT rshoulder
					{
						OFFSET -0.113228 0.046853 -0.008472
						CHANNELS 3 Zrotation Yrotation Xrotation
						JOINT relbow
						{
							OFFSET -0.260127 -0.014369 -0.031269
							CHANNELS 3 Zrotation Yrotation Xrotation
							JOINT rwrist
							{
								OFFSET -0.269108 0.006794 -0.006027
								CHANNELS 3 Zrotation Yrotation Xrotation
								End Site
								{
									OFFSET 0.000000 0.000000 0.000000
								}
							}
						}
					}
				}
			}
		}
	}
}
MOTION
Frames: 17
Frame Time: 0.033333
-0.030398 -0.993482 0.981368 -176.283110 0.299948 83.039710 -4.913754 0.888754 12.823196 -0.030912 -13.349974 2.306067 6.218202 13.873863 -17.079044 0.000000 -0.000000 0.000000 3.254266 3.164504 -9.519048 -1.631405 -0.059183 33.094075 2.019482 -11.470410 -18.583939 0.000000 -0.000000 0.000000 -4.480501 0.146520 9.281690 -0.369411 -1.264544 9.239831 -1.073364 0.226820 2.144098 7.200527 10.733013 4.207514 0.797471 4.736293 2.749053 -29.131548 -12.659079 3.241810 -48.427165 -11.935014 14.926986 -0.234207 -23.726501 8.708011 2.124526 0.759543 -1.078619 30.577852 12.895619 9.523322 55.810709 9.807832 15.477394 -12.860798 22.755843 -10.186834 2.761301 0.728702 -14.362445 
-0.030551 -0.985876 0.980763 -176.420658 0.549957 83.142948 -4.480676 1.344454 13.537632 0.072312 -13.533082 1.800543 6.078259 13.840166 -17.369393 0.000000 -0.000000 0.000000 3.409365 3.357742 -11.136095 -1.233983 -0.553392 31.583203 2.173554 -11.117944 -17.917725 0.000000 -0.000000 0.000000 -4.262979 -0.281615 9.505022 -0.343728 -1.177059 9.108631 -1.029561 0.142723 2.083416 7.143153 10.489841 4.024629 0.809955 4.427254 2.612506 -29.168484 -12.204217 3.375946 -48.616802 -11.472785 14.671718 -0.269472 -22.358583 8.527742 1.704736 0.890978 -0.783423 30.523171 12.626264 9.518311 55.890557 9.723563 15.379390 -12.625535 22.432842 -10.057278 2.699008 0.657511 -14.439260 
-0.030539 -0.977383 0.979996 -176.616509 0.855391 83.150170 -4.020225 1.781023 14.201797 0.140223 -13.655609 1.732889 5.888445 13.864735 -17.843182 0.000000 -0.000000 0.000000 3.668841 3.627655 -12.306259 -0.962115 -0.810277 28.833732 2.372212 -10.802252 -17.104414 0.000000 -0.000000 0.000000 -3.992432 -0.672209 9.845770 -0.330817 -1.095686 8.989964 -0.937368 0.102849 2.081630 7.122402 10.347920 3.832661 0.881857 4.352522 2.397261 -29.228021 -11.699884 3.517682 -48.814057 -10.933067 14.325972 -0.208844 -20.972180 8.259108 1.326208 1.000012 -0.484953 30.473163 12.416393 9.517274 55.872729 9.727554 15.248674 -12.314843 21.958141 -9.940007 2.591809 0.567186 -14.515973 
-0.030274 -0.967844 0.979081 -176.876534 1.187415 83.054285 -3.572849 2.189744 14.836536 0.201730 -13.657447 2.091834 5.676530 13.933649 -18.433845 0.000000 -0.000000 0.000000 4.028137 3.733418 -13.028880 -1.067695 -1.275092 25.280375 2.426054 -10.956759 -16.095976 0.000000 -0.000000 0.000000 -3.691845 -0.972143 10.215336 -0.328299 -1.037785 8.963333 -0.784962 0.074855 2.102314 7.088249 10.299632 3.755244 0.939170 4.575246 2.111642 -29.325676 -11.205610 3.724642 -48.921476 -10.330631 13.892365 -0.173934 -19.673577 8.047090 1.059945 1.121629 -0.202433 30.445778 12.291068 9.553173 55.787155 9.781300 15.099108 -12.027468 21.390975 -9.925736 2.358148 0.399824 -14.624270 
-0.029676 -0.957204 0.977884 -177.268763 1.477748 82.935192 -3.180219 2.603370 15.480037 0.264173 -13.509560 2.621185 5.451967 14.014252 -19.005309 0.000000 -0.000000 0.000000 4.437634 3.599164 -13.425660 -1.443107 -2.179626 21.335455 2.294604 -11.579665 -14.980102 0.000000 -0.000000 0.000000 -3.412697 -1.138670 10.531430 -0.348476 -0.953443 8.948103 -0.591778 0.051960 2.113414 7.052431 10.325471 3.899684 0.991151 4.996466 1.878152 -29.361476 -10.717712 3.991818 -49.000255 -9.674755 13.432209 -0.240044 -18.485401 8.084185 0.829508 1.240426 0.082392 30.394520 12.184424 9.644309 55.755205 9.842585 14.933132 -11.801343 20.807284 -9.965690 2.002061 0.133922 -14.801584 
-0.028788 -0.945379 0.976358 -177.765592 1.700003 82.854635 -2.817807 3.064980 16.193583 0.321207 -13.304104 3.087830 5.156009 14.038489 -19.530106 0.000000 -0.000000 0.000000 4.874123 3.235605 -13.517239 -1.849085 -3.377973 17.224854 2.097820 -12.327055 -14.021411 0.000000 -0.000000 0.000000 -3.154538 -1.200469 10.735373 -0.394593 -0.860045 8.908405 -0.411250 0.077869 2.113566 7.056400 10.428206 4.222559 1.080327 5.440546 1.752954 -29.307248 -10.194641 4.240378 -49.063642 -8.990555 13.000628 -0.443104 -17.362436 8.405621 0.541962 1.289106 0.485044 30.328529 12.017290 9.723921 55.794369 9.844552 14.734742 -11.625599 20.304463 -9.992965 1.712022 -0.079483 -14.959914 
-0.027740 -0.932414 0.974525 -178.230092 1.827927 82.878210 -2.513785 3.514245 16.890613 0.349383 -13.141148 3.540603 4.819885 13.986598 -20.021727 0.000000 -0.000000 0.000000 5.255533 2.766245 -13.368198 -2.120267 -4.537998 13.237337 1.940810 -12.959916 -13.377053 0.000000 -0.000000 0.000000 -2.896764 -1.216123 10.754801 -0.454255 -0.798121 8.868533 -0.283193 0.122207 2.114699 7.087939 10.537201 4.534261 1.146923 5.773113 1.744384 -29.227920 -9.614575 4.440921 -49.069987 -8.310275 12.590120 -0.664643 -16.374562 8.858551 0.062567 1.319503 1.047328 30.279876 11.756993 9.756285 55.867346 9.771739 14.506075 -11.530112 19.931740 -9.989519 1.669971 -0.112114 -15.006281 
-0.026574 -0.918383 0.972545 -178.484678 1.865460 82.985288 -2.285924 3.854919 17.480410 0.307862 -13.103618 4.193719 4.520701 13.907517 -20.470383 0.000000 -0.000000 0.000000 5.518219 2.325808 -13.045652 -2.283520 -5.397879 9.888356 1.718575 -13.444305 -12.912562 0.000000 -0.000000 0.000000 -2.630442 -1.237223 10.637782 -0.489609 -0.793956 8.850630 -0.201757 0.133795 2.114663 7.087444 10.515988 4.706304 1.142104 5.952425 1.766146 -29.178976 -9.057104 4.621794 -49.028630 -7.650156 12.171433 -0.759678 -15.574718 9.261539 -0.574880 1.444363 1.604798 30.249115 11.456200 9.799620 55.942001 9.630430 14.245082 -11.551271 19.715394 -9.995739 1.782870 -0.071293 -15.056570 
-0.025139 -0.903272 0.970654 -178.478063 1.832766 83.083761 -2.084677 4.079040 18.020446 0.170922 -13.136888 5.110066 4.232617 13.861213 -20.779603 0.000000 -0.000000 0.000000 5.663573 2.013244 -12.554064 -2.468322 -5.897943 7.717623 1.400119 -13.855553 -12.534882 0.000000 -0.000000 0.000000 -2.373784 -1.267753 10.533291 -0.469858 -0.830353 8.853329 -0.143183 0.123254 2.078068 7.023850 10.362234 4.727704 1.116516 5.993653 1.762114 -29.160470 -8.634808 4.783704 -48.984662 -7.087548 11.717355 -0.726051 -14.793012 9.423101 -1.239032 1.555633 1.940368 30.237570 11.165607 9.861391 56.000636 9.366384 13.974207 -11.701896 19.659430 -10.033752 1.977939 -0.038764 -15.161580 
-0.023400 -0.886913 0.969160 -178.249218 1.701977 83.086361 -1.928140 4.192551 18.629276 -0.035630 -13.215076 6.238743 3.934014 13.868256 -20.838671 0.000000 -0.000000 0.000000 5.670132 1.832964 -11.798093 -2.675264 -6.161570 6.922566 1.123940 -14.261986 -12.257627 0.000000 -0.000000 0.000000 -2.150487 -1.310459 10.504539 -0.420418 -0.902343 8.881424 -0.123857 0.140959 2.032799 6.914630 10.142077 4.647717 1.099829 5.955569 1.761191 -29.172228 -8.360789 4.877511 -48.917599 -6.722323 11.216286 -0.651205 -13.917280 9.255700 -1.827179 1.538404 2.027984 30.239135 10.921002 9.858389 56.074842 8.934335 13.740742 -11.964098 19.670821 -10.190692 2.285002 0.009735 -15.245446 
-0.021323 -0.869307 0.968409 -177.984850 1.471653 83.019057 -1.852012 4.201101 19.241715 -0.290155 -13.316723 7.629136 3.583957 13.822150 -20.544830 0.000000 -0.000000 0.000000 5.622019 1.698099 -10.798586 -2.799871 -6.377911 7.147644 0.925075 -14.607628 -11.975873 0.000000 -0.000000 0.000000 -1.931291 -1.349293 10.489963 -0.393424 -0.984055 8.939782 -0.166405 0.225994 1.967923 6.755517 9.910893 4.554123 1.102173 5.928923 1.824363 -29.212381 -8.193524 4.900648 -48.864754 -6.520613 10.714313 -0.496156 -13.097817 8.853457 -2.214704 1.455201 2.003605 30.189748 10.732633 9.791462 56.255886 8.378887 13.536997 -12.286980 19.696799 -10.404191 2.616392 0.091809 -15.279072 
-0.018758 -0.850690 0.968774 -177.898365 1.212825 82.965616 -1.823946 4.089517 19.603061 -0.667405 -13.360145 9.556435 3.088741 13.638087 -19.860572 0.000000 -0.000000 0.000000 5.638601 1.516549 -9.679030 -2.759778 -6.463465 7.665462 0.782765 -14.594688 -11.574418 0.000000 -0.000000 0.000000 -1.675827 -1.325228 10.405042 -0.382483 -1.053122 9.050582 -0.253860 0.363371 1.833439 6.522923 9.664133 4.551257 1.137557 5.943897 1.949938 -29.297162 -8.071178 4.916703 -48.893448 -6.330538 10.289951 -0.134652 -12.734820 8.263368 -2.373360 1.421016 1.779002 30.080203 10.578558 9.765724 56.509033 7.795435 13.321120 -12.639300 19.857656 -10.545148 2.885824 0.150205 -15.326898 
-0.015585 -0.831170 0.970103 -178.129466 0.944989 82.941165 -1.832854 3.863633 19.525094 -1.285952 -13.147156 12.317060 2.447814 13.417181 -18.758295 0.000000 -0.000000 0.000000 5.705558 1.272776 -8.508930 -2.562659 -6.104890 8.076277 0.598175 -13.970995 -11.325371 0.000000 -0.000000 0.000000 -1.396954 -1.168132 10.212706 -0.372755 -1.103279 9.231144 -0.379137 0.515190 1.686064 6.235177 9.465938 4.593006 1.219860 5.969879 2.121740 -29.362224 -7.906452 4.912102 -49.066227 -6.033631 9.985101 0.492514 -13.234538 7.460603 -2.476924 1.527897 1.094036 29.921305 10.408554 9.820451 56.765436 7.296346 13.094653 -13.029525 20.282977 -10.527802 3.215677 0.103327 -15.437110 
-0.011830 -0.810733 0.971811 -178.645814 0.654616 82.873104 -1.814411 3.566155 18.979453 -2.240541 -12.518463 16.057037 1.674922 13.129950 -17.282081 0.000000 -0.000000 0.000000 5.704431 0.889009 -7.118259 -2.228979 -5.491987 8.238528 0.402333 -12.928046 -11.540081 0.000000 -0.000000 0.000000 -1.121752 -0.855143 9.993423 -0.356596 -1.168287 9.429385 -0.525287 0.657549 1.614897 5.913090 9.322995 4.574127 1.314944 5.960610 2.366848 -29.370376 -7.647777 4.845415 -49.321759 -5.658580 9.778984 1.200693 -14.613486 6.506061 -2.630850 1.683770 -0.129010 29.776356 10.184530 9.879628 56.902953 6.919682 12.852768 -13.418965 20.928774 -10.408677 3.642057 0.014032 -15.460481 
-0.007603 -0.789597 0.973497 -179.419970 0.377280 82.804041 -1.643019 3.217822 17.768989 -3.565448 -11.289266 20.951303 0.820076 12.554085 -15.156198 0.000000 -0.000000 0.000000 5.583289 0.230186 -5.372483 -1.722278 -5.097458 7.900903 0.211504 -11.764781 -12.186493 0.000000 -0.000000 0.000000 -0.826834 -0.351569 9.731373 -0.298893 -1.271723 9.629514 -0.671800 0.814740 1.548919 5.533836 9.195827 4.541588 1.379361 5.909913 2.643786 -29.430657 -7.341302 4.704178 -49.492671 -5.274437 9.753008 1.720009 -16.497809 5.676892 -2.629039 1.711655 -1.557075 29.798749 9.909029 9.953093 56.700261 6.669837 12.551931 -13.677882 21.618202 -10.297988 3.897325 -0.024486 -15.352909 
-0.003065 -0.768351 0.975075 179.571932 0.167429 82.836526 -1.211193 2.780381 15.522912 -5.264215 -9.399576 27.262844 -0.062524 11.534638 -12.201894 0.000000 -0.000000 0.000000 5.357630 -0.704866 -3.330989 -1.008785 -4.913497 6.877324 0.145870 -10.399579 -13.023484 0.000000 -0.000000 0.000000 -0.491445 0.381182 9.408002 -0.156133 -1.410462 9.789504 -0.816711 1.033642 1.377345 5.129812 9.049761 4.624162 1.453485 5.770486 2.904114 -29.590293 -7.017333 4.479176 -49.525766 -4.941803 9.985667 1.977710 -18.586975 5.291705 -2.370332 1.572480 -2.810468 30.039939 9.602765 10.095114 56.091230 6.617216 12.144542 -13.668470 22.098331 -10.182634 3.740703 -0.052279 -15.284764 
0.001587 -0.747674 0.976368 178.400431 0.020515 82.918501 -0.567744 2.283266 12.193449 -7.083685 -6.983698 34.839575 -0.689065 10.373332 -8.783638 0.000000 -0.000000 0.000000 5.088808 -1.763754 -1.077791 -0.194185 -4.583854 5.329523 0.161162 -8.861244 -13.855161 0.000000 -0.000000 0.000000 -0.125163 1.343867 9.168803 0.029882 -1.531486 9.823228 -0.968400 1.351358 1.206508 4.769528 8.812842 4.684507 1.661648 5.519576 3.181426 -29.711046 -6.736918 4.167463 -49.507200 -4.737466 10.387701 2.042309 -20.857013 5.454221 -1.916158 1.455532 -3.855627 30.353175 9.397563 10.288971 55.297938 6.807780 11.618783 -13.446781 22.205425 -10.050244 3.282643 -0.151052 -15.365100 
